


   
                                                             ÛÛÛÛÛ  
   ÛÛÛÛÛÛÛÛ ÛÛÛ        ÛÛÛ                                  ÛÛÛÛÛÛÛÛ
  ÛÛ   ÛÛÛ ÛÛ        ÛÛÛÛÛÛÛ ÛÛ                           ÛÛÛÛ   ÛÛÛ
       ÛÛ ÛÛÛ       ÛÛ   ÛÛÛÛÛÛ                           ÛÛÛ   ÛÛÛÛ
      ÛÛÛ ÛÛÛ      ÛÛ      ÛÛÛ                           ÛÛÛ    ÛÛÛ 
      ÛÛÛ ÛÛÛ     ÛÛÛ      ÛÛ              ÛÛÛ     ÛÛÛ   ÛÛÛ   ÛÛÛ  
      ÛÛÛ ÛÛÛ     ÛÛÛÛ     ÛÛ             ÛÛÛÛÛ   ÛÛÛÛÛ  ÛÛÛ  ÛÛ    
    ÛÛÛÛÛ ÛÛÛ    ÛÛÛÛÛÛÛÛÛÛÛÛÛÛÛÛ         ÛÛÛÛ    ÛÛÛÛ    ÛÛ ÛÛ     
   ÛÛÛÛÛÛ ÛÛÛ   ÛÛ ÛÛÛÛÛÛÛÛÛÛÛÛÛÛÛÛ      ÛÛÛÛ    ÛÛÛÛ      ÛÛÛ      
  ÛÛ  ÛÛÛ ÛÛÛÛ  ÛÛ       ÛÛ    ÛÛÛÛ     ÛÛÛÛ    ÛÛÛÛ       ÛÛÛÛ     
       ÛÛÛÛÛÛÛ  ÛÛÛ     ÛÛ      ÛÛÛÛ   ÛÛÛÛÛ   ÛÛÛÛÛ     ÛÛÛ ÛÛÛ    
       ÛÛÛ ÛÛÛ   ÛÛÛÛÛÛÛÛÛÛÛÛÛÛ  ÛÛÛ  ÛÛÛÛÛ   ÛÛÛÛÛ     ÛÛÛ   ÛÛÛ   
       ÛÛÛ ÛÛÛ    ÛÛÛÛÛÛÛÛÛÛÛÛÛÛ ÛÛÛ ÛÛ ÛÛÛ  ÛÛ ÛÛÛ    ÛÛÛ    ÛÛÛ   
       ÛÛÛ ÛÛÛ         ÛÛ   ÛÛÛÛÛÛÛÛ    ÛÛÛ     ÛÛÛ   ÛÛÛ     ÛÛÛ   
      ÛÛÛÛ ÛÛÛ   ÛÛÛÛÛÛÛ    ÛÛÛÛÛÛÛÛ    ÛÛ      ÛÛ   ÛÛÛÛ    ÛÛÛÛ   
   ÛÛÛÛÛÛ  ÛÛÛ  ÛÛÛÛÛÛÛÛÛ ÛÛÛ  ÛÛÛ     ÛÛÛ     ÛÛÛ   ÛÛÛ    ÛÛÛÛ    
  ÛÛÛÛÛÛ   ÛÛ   ÛÛ   ÛÛÛÛÛÛÛ  ÛÛÛ      ÛÛÛ     ÛÛÛ   ÛÛÛ   ÛÛÛÛ     
 ÛÛ  ÛÛÛÛ ÛÛÛ   ÛÛ    ÛÛÛÛÛÛÛÛÛ        ÛÛÛ     ÛÛÛ     ÛÛÛÛÛÛÛ      
 ÛÛ    ÛÛÛÛ      ÛÛÛÛÛÛ   ÛÛÛÛ         ÛÛÛ     ÛÛÛ     ÛÛÛÛÛ        
 ---------------------------------------------------------------



Movie_Info : http://www.imdb.com/title/tt1185442/


Video

Format                           : MPEG-4 Visual
Format profile                   : Streaming Video@L1
Format settings, BVOP            : Yes
Format settings, QPel            : No
Format settings, GMC             : No warppoints
Format settings, Matrix          : Custom
Codec ID                         : XVID
Codec ID/Hint                    : XviD
Duration                         : 5mn 28s
Bit rate                         : 433 Kbps
Width                            : 608 pixels
Height                           : 224 pixels
Display aspect ratio             : 2.714
Frame rate                       : 23.976 fps
Resolution                       : 24 bits
Colorimetry                      : 4:2:0
Scan type                        : Progressive
Bits/(Pixel*Frame)               : 0.133
Stream size                      : 16.9 MiB (84%)
Writing library                  : XviD 1.2.1 (UTC 2008-12-04)


Audio

Format                           : MPEG Audio
Format version                   : Version 2
Format profile                   : Layer 3
Codec ID                         : 55
Codec ID/Hint                    : MP3
Duration                         : 5mn 28s
Bit rate mode                    : Constant
Bit rate                         : 80.0 Kbps
Channel(s)                       : 2 channels
Sampling rate                    : 24.0 KHz
Resolution                       : 16 bits
Stream size                      : 3.13 MiB (15%)
Alignment                        : Aligned on interleaves
Interleave, duration             : 479 ms (11.48 video frames)
Interleave, preload duration     : 960 ms

   
   
If you fing any type of fake/Spam/Virus in Torrents, then PLEASE Let us know -->
http://forum.suprbay.org/forumdisplay.php?fid=29

For Your Queries & Problems, Feel free to PM Me on Suprbay -->
http://forum.suprbay.org/member.php?action=profile&uid=73821


Be Safe while using Applications downloaded from internet.. Your PC may get damaged.
Use Sandboxie for that -->> For More Info, You can Google it.


Regards,
IS.

